<svg width="480" height="108" viewBox="68 185 480 110" fill="none" xmlns="http://www.w3.org/2000/svg">
<path d="M170.294 239L150.89 189.896H155.03L172.67 235.04H171.068L188.852 189.896H192.902L173.354 239H170.294Z" fill="white"/>
<path d="M253.605 238.5V189.396H257.403V238.5H253.605ZM255.999 238.5V235.044H283.755V238.5H255.999ZM304.437 238.5V189.396H308.235V238.5H304.437ZM306.831 215.766V212.31H333.813V215.766H306.831ZM306.831 192.852V189.396H335.037V192.852H306.831ZM358.347 215.982V212.706H373.521C377.145 212.706 379.908 211.794 381.81 209.97C383.712 208.146 384.663 205.734 384.663 202.734C384.663 199.758 383.715 197.352 381.819 195.516C379.923 193.68 377.163 192.762 373.539 192.762H358.347V189.396H373.359C376.563 189.396 379.293 189.96 381.549 191.088C383.805 192.216 385.53 193.782 386.724 195.786C387.918 197.79 388.515 200.094 388.515 202.698C388.515 205.338 387.918 207.657 386.724 209.655C385.53 211.653 383.805 213.207 381.549 214.317C379.293 215.427 376.563 215.982 373.359 215.982H358.347ZM356.061 238.5V189.396H359.859V238.5H356.061ZM387.165 238.5L368.121 215.1L371.937 214.074L392.097 238.5H387.165Z" fill="white"/>
<path d="M398.199 238.5L418.233 189.396H421.293L441.183 238.5H437.061L418.935 193.302H420.501L402.231 238.5H398.199ZM406.965 224.028V220.662H432.489V224.028H406.965ZM450.453 238.5V189.396H453.189L474.789 224.802H472.665L494.265 189.396H497.001V238.5H493.203V195.948L494.103 196.182L475.095 227.358H472.359L453.351 196.182L454.251 195.948V238.5H450.453ZM510.429 238.5V189.396H514.227V238.5H510.429ZM512.823 238.5V235.044H542.397V238.5H512.823ZM512.823 214.992V211.662H540.165V214.992H512.823ZM512.823 192.852V189.396H541.983V192.852H512.823Z" fill="#2563EB"/>
<g clip-path="url(#clip0_419_68)">
<path d="M200.398 235.997L219.998 196.797L239.598 235.997" stroke="#0D7FF2" stroke-width="6.72" stroke-linecap="square"/>
</g>
<path d="M171.822 292L169.062 283.6H170.418L172.494 290.068H172.134L174.162 283.6H175.122L177.15 290.068H176.79L178.866 283.6H180.222L177.462 292H176.502L174.462 285.544H174.822L172.782 292H171.822ZM207.846 292V283.6H209.226V292H207.846ZM208.794 292V290.74H213.498V292H208.794ZM208.794 288.316V287.104H213.09V288.316H208.794ZM208.794 284.86V283.6H213.438V284.86H208.794ZM242.274 292V290.8H244.686C245.11 290.8 245.438 290.668 245.67 290.404C245.902 290.14 246.018 289.836 246.018 289.492C246.018 289.26 245.966 289.044 245.862 288.844C245.758 288.644 245.606 288.484 245.406 288.364C245.206 288.244 244.966 288.184 244.686 288.184H242.274V286.984H244.482C244.842 286.984 245.13 286.892 245.346 286.708C245.562 286.524 245.67 286.252 245.67 285.892C245.67 285.532 245.562 285.26 245.346 285.076C245.13 284.892 244.842 284.8 244.482 284.8H242.274V283.6H244.518C245.086 283.6 245.558 283.704 245.934 283.912C246.31 284.12 246.59 284.388 246.774 284.716C246.958 285.044 247.05 285.396 247.05 285.772C247.05 286.212 246.928 286.6 246.684 286.936C246.44 287.272 246.082 287.544 245.61 287.752L245.718 287.32C246.246 287.536 246.658 287.84 246.954 288.232C247.25 288.624 247.398 289.084 247.398 289.612C247.398 290.044 247.292 290.44 247.08 290.8C246.868 291.16 246.556 291.45 246.144 291.67C245.732 291.89 245.226 292 244.626 292H242.274ZM241.326 292V283.6H242.706V292H241.326ZM306.33 292.12C305.666 292.12 305.102 292 304.638 291.76C304.174 291.52 303.758 291.168 303.39 290.704L304.326 289.768C304.558 290.104 304.834 290.366 305.154 290.554C305.474 290.742 305.882 290.836 306.378 290.836C306.842 290.836 307.212 290.74 307.488 290.548C307.764 290.356 307.902 290.092 307.902 289.756C307.902 289.476 307.83 289.248 307.686 289.072C307.542 288.896 307.352 288.75 307.116 288.634C306.88 288.518 306.62 288.414 306.336 288.322C306.052 288.23 305.768 288.126 305.484 288.01C305.2 287.894 304.94 287.748 304.704 287.572C304.468 287.396 304.278 287.168 304.134 286.888C303.99 286.608 303.918 286.252 303.918 285.82C303.918 285.324 304.04 284.902 304.284 284.554C304.528 284.206 304.858 283.94 305.274 283.756C305.69 283.572 306.154 283.48 306.666 283.48C307.218 283.48 307.712 283.588 308.148 283.804C308.584 284.02 308.938 284.296 309.21 284.632L308.274 285.568C308.034 285.296 307.784 285.094 307.524 284.962C307.264 284.83 306.966 284.764 306.63 284.764C306.214 284.764 305.888 284.848 305.652 285.016C305.416 285.184 305.298 285.42 305.298 285.724C305.298 285.98 305.37 286.186 305.514 286.342C305.658 286.498 305.848 286.63 306.084 286.738C306.32 286.846 306.58 286.948 306.864 287.044C307.148 287.14 307.432 287.248 307.716 287.368C308 287.488 308.26 287.642 308.496 287.83C308.732 288.018 308.922 288.26 309.066 288.556C309.21 288.852 309.282 289.224 309.282 289.672C309.282 290.424 309.016 291.02 308.484 291.46C307.952 291.9 307.234 292.12 306.33 292.12ZM340.926 292.12C340.326 292.12 339.766 292.008 339.246 291.784C338.726 291.56 338.27 291.25 337.878 290.854C337.486 290.458 337.18 289.998 336.96 289.474C336.74 288.95 336.63 288.388 336.63 287.788C336.63 287.188 336.74 286.628 336.96 286.108C337.18 285.588 337.484 285.13 337.872 284.734C338.26 284.338 338.712 284.03 339.228 283.81C339.744 283.59 340.302 283.48 340.902 283.48C341.502 283.48 342.06 283.59 342.576 283.81C343.092 284.03 343.546 284.338 343.938 284.734C344.33 285.13 344.636 285.59 344.856 286.114C345.076 286.638 345.186 287.2 345.186 287.8C345.186 288.4 345.076 288.962 344.856 289.486C344.636 290.01 344.332 290.468 343.944 290.86C343.556 291.252 343.104 291.56 342.588 291.784C342.072 292.008 341.518 292.12 340.926 292.12ZM340.902 290.8C341.47 290.8 341.968 290.672 342.396 290.416C342.824 290.16 343.16 289.806 343.404 289.354C343.648 288.902 343.77 288.38 343.77 287.788C343.77 287.348 343.7 286.946 343.56 286.582C343.42 286.218 343.222 285.902 342.966 285.634C342.71 285.366 342.408 285.16 342.06 285.016C341.712 284.872 341.326 284.8 340.902 284.8C340.342 284.8 339.848 284.926 339.42 285.178C338.992 285.43 338.656 285.78 338.412 286.228C338.168 286.676 338.046 287.196 338.046 287.788C338.046 288.228 338.116 288.634 338.256 289.006C338.396 289.378 338.592 289.696 338.844 289.96C339.096 290.224 339.398 290.43 339.75 290.578C340.102 290.726 340.486 290.8 340.902 290.8ZM372.99 292V283.6H374.37V292H372.99ZM373.938 292V290.74H378.33V292H373.938ZM409.138 292.12C408.5 292.12 407.93 291.976 407.426 291.689C406.923 291.401 406.526 291.007 406.235 290.506C405.944 290.005 405.798 289.439 405.798 288.808V283.6H407.178V288.796C407.178 289.204 407.264 289.558 407.436 289.859C407.607 290.16 407.842 290.392 408.138 290.555C408.435 290.718 408.767 290.8 409.136 290.8C409.511 290.8 409.842 290.719 410.13 290.556C410.417 290.393 410.645 290.161 410.814 289.86C410.982 289.56 411.066 289.209 411.066 288.808V283.6H412.446V288.82C412.446 289.451 412.302 290.015 412.015 290.512C411.728 291.008 411.336 291.401 410.839 291.688C410.342 291.976 409.775 292.12 409.138 292.12ZM442.494 292V283.84H443.874V292H442.494ZM439.758 284.86V283.6H446.61V284.86H439.758ZM474.018 292V283.6H475.398V292H474.018ZM507.486 292.12C506.886 292.12 506.326 292.008 505.806 291.784C505.286 291.56 504.83 291.25 504.438 290.854C504.046 290.458 503.74 289.998 503.52 289.474C503.3 288.95 503.19 288.388 503.19 287.788C503.19 287.188 503.3 286.628 503.52 286.108C503.74 285.588 504.044 285.13 504.432 284.734C504.82 284.338 505.272 284.03 505.788 283.81C506.304 283.59 506.862 283.48 507.462 283.48C508.062 283.48 508.62 283.59 509.136 283.81C509.652 284.03 510.106 284.338 510.498 284.734C510.89 285.13 511.196 285.59 511.416 286.114C511.636 286.638 511.746 287.2 511.746 287.8C511.746 288.4 511.636 288.962 511.416 289.486C511.196 290.01 510.892 290.468 510.504 290.86C510.116 291.252 509.664 291.56 509.148 291.784C508.632 292.008 508.078 292.12 507.486 292.12ZM507.462 290.8C508.03 290.8 508.528 290.672 508.956 290.416C509.384 290.16 509.72 289.806 509.964 289.354C510.208 288.902 510.33 288.38 510.33 287.788C510.33 287.348 510.26 286.946 510.12 286.582C509.98 286.218 509.782 285.902 509.526 285.634C509.27 285.366 508.968 285.16 508.62 285.016C508.272 284.872 507.886 284.8 507.462 284.8C506.902 284.8 506.408 284.926 505.98 285.178C505.552 285.43 505.216 285.78 504.972 286.228C504.728 286.676 504.606 287.196 504.606 287.788C504.606 288.228 504.676 288.634 504.816 289.006C504.956 289.378 505.152 289.696 505.404 289.96C505.656 290.224 505.958 290.43 506.31 290.578C506.662 290.726 507.046 290.8 507.462 290.8ZM539.55 292V283.6H540.51L540.93 285.184V292H539.55ZM545.37 292L540.342 285.436L540.51 283.6L545.538 290.164L545.37 292ZM545.37 292L544.95 290.524V283.6H546.33V292H545.37Z" fill="#64748B"/>
<g clip-path="url(#clip1_419_68)">
<path d="M75 268.938L115 188.938L155 268.938" stroke="white" stroke-width="12.8" stroke-linecap="round" stroke-linejoin="round"/>
<path d="M103.5 212L115.002 188.938L126.5 212" stroke="#2563EB" stroke-width="12.8" stroke-linecap="round" stroke-linejoin="round"/>
</g>
<defs>
<clipPath id="clip0_419_68">
<rect width="52" height="52" fill="white" transform="translate(192.602 189)"/>
</clipPath>
<clipPath id="clip1_419_68">
<rect width="160" height="157" fill="white" transform="matrix(1 0 0 -1 35 238)"/>
</clipPath>
</defs>
</svg>
